Coordinates
version=1
nRows=13
nColumns=36
inDegrees=yes

Units are S.I. units (second, meters, Newtons, ...)
If the header above contains a line with 'inDegrees', this indicates whether rotational values are in degrees (yes) or radians (no).

endheader
time	pelvis_tilt	pelvis_list	pelvis_rotation	pelvis_tx	pelvis_ty	pelvis_tz	hip_flexion_r	hip_adduction_r	hip_rotation_r	knee_angle_r	knee_angle_r_beta	ankle_angle_r	subtalar_angle_r	mtp_angle_r	hip_flexion_l	hip_adduction_l	hip_rotation_l	knee_angle_l	knee_angle_l_beta	ankle_angle_l	subtalar_angle_l	mtp_angle_l	lumbar_extension	lumbar_bending	lumbar_rotation	arm_flex_r	arm_add_r	arm_rot_r	elbow_flex_r	pro_sup_r	arm_flex_l	arm_add_l	arm_rot_l	elbow_flex_l	pro_sup_l
      3.85000000	    -10.31544829	     -4.34595584	     12.54778441	      0.75645057	      0.95427633	      0.07380909	     22.68785999	     -4.43613589	     -6.03960906	     21.58930579	      0.37680447	     13.02391748	     -0.65778965	     -7.49999987	     21.77146143	     -8.15158226	     -7.10155375	     23.45863901	      0.40943049	     14.49484223	     -1.24016851	     -7.49999987	     -7.04070937	     -1.32858053	      5.97881737	      9.30328498	     -8.36782699	     20.56349873	     26.92282719	     65.08400367	     13.32029444	     -4.81066786	     38.91482907	     18.83886837	     59.13174526
      3.86666670	     -9.76298325	     -4.24600043	     12.59933234	      0.76061322	      0.96187762	      0.07106504	     20.92711968	     -4.23399020	     -6.01169062	     19.50795181	      0.34047799	     11.94405402	     -0.70071054	     -7.49999987	     20.12429061	     -7.94227737	     -7.01124806	     21.57949465	      0.37663323	     13.78582259	     -1.18624945	     -7.49999987	     -6.62013698	     -1.23901054	      6.68173187	      8.44156765	     -8.72917368	     19.29920463	     27.20196159	     66.00731645	     13.79858406	     -4.21122587	     37.18705761	     16.29932959	     60.92735953
      3.88333330	     -9.45378195	     -4.15736987	     12.70619188	      0.75592430	      0.96384563	      0.07356789	     19.89083104	     -4.10548543	     -5.86419160	     18.11463635	      0.31616005	     10.95903648	     -1.07286546	     -7.49999987	     19.09403077	     -7.73459442	     -6.90120235	     20.15968406	      0.35185286	     13.19230115	     -1.22249347	     -7.49999987	     -6.31489174	     -1.09092410	      6.63675911	      8.09736402	     -8.94477973	     19.05247582	     27.23130659	     66.24502600	     13.91242703	     -4.65225640	     36.95053512	     16.24873406	     61.41808421
      3.90000000	     -9.09273665	     -4.05896006	     12.89012718	      0.75528798	      0.96555509	      0.07311597	     18.75823979	     -4.00266752	     -5.75850117	     16.63635340	      0.29035914	     10.18801347	     -1.16221689	     -7.49999987	     17.93936304	     -7.50270524	     -6.83179861	     18.52959982	      0.32340253	     12.59472463	     -1.06014734	     -7.49999987	     -6.09278414	     -0.99465699	      6.66026471	      7.80244044	     -9.15740422	     18.60857374	     27.21554791	     66.43444124	     14.32044327	     -4.95464101	     36.29859765	     15.59628802	     62.01553578
      3.91666670	     -8.54205034	     -3.88388167	     13.05235550	      0.75938846	      0.97338457	      0.07045754	     17.28470979	     -3.92764265	     -5.68174935	     14.97529481	      0.26136820	      9.47839081	     -1.08047469	     -7.49999987	     16.36109933	     -7.23598648	     -6.88585632	     16.61830091	      0.29004407	     11.76197694	     -0.92263336	     -7.49999987	     -6.04569083	     -0.89555876	      6.78149436	      7.47398466	     -9.45156510	     18.35604744	     26.91441876	     66.85848708	     14.98348515	     -5.37471468	     35.82702402	     15.11407418	     62.67771175
      3.93333330	     -8.06774514	     -3.74799086	     13.27937096	      0.75891947	      0.97307676	      0.07031222	     16.04197322	     -3.87275775	     -5.66090700	     13.51988577	      0.23596652	      8.82821563	     -1.06198906	     -7.49999987	     15.01960602	     -6.99390612	     -6.78995104	     14.96406047	      0.26117212	     11.08863848	     -0.76341826	     -7.49999987	     -5.88557755	     -0.78344737	      6.86694717	      7.04638629	     -9.71266090	     17.98968649	     26.78077454	     66.89999673	     15.74489448	     -5.51750076	     34.99882774	     14.29165524	     63.24144968
      3.95000000	     -7.53692250	     -3.62674458	     13.51077772	      0.75830627	      0.97342198	      0.07043627	     14.76736931	     -3.79577319	     -5.62688946	     12.12459047	      0.21161402	      8.26800807	     -0.93655429	     -7.49999987	     13.73574643	     -6.81574776	     -6.69547265	     13.50788027	      0.23575699	     10.58756084	     -0.57176789	     -7.49999987	     -5.74098540	     -0.65542290	      6.84658125	      6.83901592	     -9.95596130	     17.72093182	     26.49078246	     67.62625322	     16.40096555	     -5.80205517	     34.47990177	     13.65137344	     64.26871318
      3.96666670	     -7.16574271	     -3.53980203	     13.79536159	      0.75781860	      0.97374476	      0.07081856	     13.73548600	     -3.74365051	     -5.60608610	     10.91119395	      0.19043626	      7.68957602	     -0.97823049	     -7.49999987	     12.71895497	     -6.64557251	     -6.49280359	     12.22027955	      0.21328411	     10.07283217	     -0.50886844	     -7.49999987	     -5.37042211	     -0.53114630	      7.02416605	      6.23503094	    -10.33230879	     17.40933358	     26.60323302	     68.00741129	     17.02492442	     -6.15676963	     33.80172102	     13.31012288	     65.03602260
      3.98333330	     -6.69538055	     -3.45502578	     14.21149440	      0.75737503	      0.97721379	      0.07107337	     12.57401608	     -3.70085244	     -5.76944982	      9.76604865	      0.17044970	      7.20786966	     -0.90113583	     -7.49999987	     11.58348924	     -6.51826682	     -6.34107263	     10.93371280	      0.19082929	      9.50009614	     -0.31737350	     -7.49999987	     -5.10026957	     -0.30457787	      7.00696012	      5.47313940	    -10.12662135	     12.23169888	     27.05027534	     79.80141578	     17.20482485	     -6.38486682	     24.94879428	     13.23684999	     82.72758668
      4.00000000	     -6.24220760	     -3.36921713	     14.64422234	      0.75684482	      0.97972222	      0.07110708	     11.47465280	     -3.65222442	     -5.86766923	      8.70150023	      0.15186983	      6.62472463	     -1.01147664	     -7.49999987	     10.39571218	     -6.40262195	     -6.22291759	      9.55065468	      0.16669037	      8.85782905	     -0.13853929	     -7.49999987	     -4.78376921	     -0.08915604	      6.79512264	      5.59941424	    -10.65000481	     12.75210847	     26.90563488	     79.30663913	     17.59191681	     -7.15353604	     25.05819366	     13.40545151	     82.88734800
      4.01666670	     -5.67218375	     -3.26361904	     14.97337528	      0.76049023	      0.97581702	      0.07346197	     10.30386941	     -3.51766984	     -5.64230262	      7.72242384	      0.13478172	      5.98244047	     -1.65744927	     -7.49999987	      9.10413800	     -6.33532235	     -6.03044242	      8.26757053	      0.14429633	      8.34261260	     -0.07325423	     -7.49999987	     -4.84318385	      0.06446049	      6.72071019	      5.55958496	    -11.15335609	     12.63491543	     27.47780534	     78.05458173	     17.59866846	     -8.07240944	     24.52353957	     14.80410946	     81.42804825
      4.03333330	     -5.42001794	     -3.25422984	     15.34587407	      0.76025763	      0.97653561	      0.07365411	      9.63636122	     -3.41646265	     -5.74461894	      7.02598963	      0.12262665	      5.71052152	     -1.68728031	     -7.49999987	      8.39155288	     -6.31198658	     -5.80217708	      7.30434129	      0.12748481	      8.08635879	      0.10826804	     -7.49999987	     -4.37671162	      0.20343754	      6.65015236	      5.56808138	    -11.60701663	     12.79660338	     27.35694086	     77.93549407	     17.99031968	     -8.64435453	     24.32316927	     14.45603218	     81.29114147
      4.05000000	     -5.26121544	     -3.21578980	     15.58955935	      0.75987728	      0.97719933	      0.07353490	      9.17374756	     -3.37636162	     -5.76102743	      6.57385477	      0.11473541	      5.59785501	     -1.66538917	     -7.49999987	      7.86285961	     -6.26989744	     -5.66106419	      6.55753920	      0.11445065	      7.96414859	      0.36822580	     -7.49999987	     -3.91360717	      0.27063701	      6.44228613	      5.76680845	    -11.75827866	     11.63398862	     26.99560579	     84.54791325	     18.06410523	     -9.13029116	     20.61053721	     14.58590081	     89.89549822
